<svg xmlns="http://www.w3.org/2000/svg" viewBox="0 0 440 156" role="img" aria-labelledby="title description">
    <title id="title">Jamy Fashion's UG</title>
    <desc id="description">A navy and gold fashion monogram with a clothes hanger and the words Jamy Fashion's UG.</desc>
    <defs>
        <linearGradient id="gold" x1="0" y1="0" x2="1" y2="1">
            <stop offset="0" stop-color="#9D762B" />
            <stop offset="0.5" stop-color="#D8B768" />
            <stop offset="1" stop-color="#B78B37" />
        </linearGradient>
    </defs>
    <g transform="translate(16 11)">
        <path d="M54 36c0-13 10-23 23-23 12 0 22 9 22 21 0 9-5 15-13 20l-6 4" fill="none" stroke="url(#gold)" stroke-width="6" stroke-linecap="round" />
        <path d="M79 58 25 91c-8 5-4 14 5 14h98c9 0 13-9 5-14Z" fill="none" stroke="url(#gold)" stroke-width="5" stroke-linejoin="round" />
        <path d="M42 82c5 6 9 17 8 31 10-8 17-18 20-31-4 21-1 34 9 47H37c8-14 10-30 5-47Z" fill="url(#gold)" opacity=".96" />
        <text x="63" y="124" fill="#0D274D" font-family="Georgia, serif" font-size="69" font-style="italic" font-weight="700">J</text>
        <text x="91" y="124" fill="url(#gold)" font-family="Georgia, serif" font-size="70">F</text>
        <path d="M19 58h8M23 54v8M132 55h10M137 50v10" stroke="#C9A24D" stroke-width="2" stroke-linecap="round" />
    </g>
    <g transform="translate(168 22)">
        <text x="0" y="53" fill="#0D274D" font-family="Georgia, serif" font-size="48" letter-spacing="8">JAMY</text>
        <text x="5" y="86" fill="#B78B37" font-family="cursive" font-size="28" font-style="italic">Fashion's</text>
        <text x="143" y="86" fill="#0D274D" font-family="Georgia, serif" font-size="31" letter-spacing="2">UG</text>
        <path d="M5 105h45M182 105h30" stroke="#C9A24D" stroke-width="2" />
        <text x="58" y="110" fill="#0D274D" font-family="Arial, sans-serif" font-size="9" font-weight="700" letter-spacing="2.7">STYLE. CONFIDENCE. YOU.</text>
    </g>
</svg>
